<mxfile host="app.diagrams.net" modified="2023-10-05T14:26:19.489Z" agent="Mozilla/5.0 (Windows NT 10.0; Win64; x64) AppleWebKit/537.36 (KHTML, like Gecko) Chrome/117.0.0.0 Safari/537.36" etag="Ek49i9JkjH8f61Z7BKMr" version="22.0.2" type="device">
  <diagram name="Page-1" id="4Df8ILGk6HO1bP7JzHmI">
    <mxGraphModel dx="1702" dy="1518" grid="1" gridSize="10" guides="1" tooltips="1" connect="1" arrows="1" fold="1" page="1" pageScale="1" pageWidth="850" pageHeight="1100" math="0" shadow="0">
      <root>
        <mxCell id="0" />
        <mxCell id="1" parent="0" />
        <mxCell id="6iqwT46ndTNTiYN2ALf5-15" value="" style="edgeStyle=orthogonalEdgeStyle;rounded=0;orthogonalLoop=1;jettySize=auto;html=1;fontStyle=1" edge="1" parent="1" source="6iqwT46ndTNTiYN2ALf5-10" target="6iqwT46ndTNTiYN2ALf5-14">
          <mxGeometry relative="1" as="geometry" />
        </mxCell>
        <mxCell id="6iqwT46ndTNTiYN2ALf5-16" value="True" style="edgeLabel;html=1;align=center;verticalAlign=middle;resizable=0;points=[];fontStyle=3;fontSize=13;" vertex="1" connectable="0" parent="6iqwT46ndTNTiYN2ALf5-15">
          <mxGeometry x="-0.3819" y="-1" relative="1" as="geometry">
            <mxPoint y="4" as="offset" />
          </mxGeometry>
        </mxCell>
        <mxCell id="6iqwT46ndTNTiYN2ALf5-18" value="" style="edgeStyle=orthogonalEdgeStyle;rounded=0;orthogonalLoop=1;jettySize=auto;html=1;fontStyle=1" edge="1" parent="1" source="6iqwT46ndTNTiYN2ALf5-10" target="6iqwT46ndTNTiYN2ALf5-17">
          <mxGeometry relative="1" as="geometry" />
        </mxCell>
        <mxCell id="6iqwT46ndTNTiYN2ALf5-19" value="False" style="edgeLabel;html=1;align=center;verticalAlign=middle;resizable=0;points=[];fontStyle=3;fontSize=13;" vertex="1" connectable="0" parent="6iqwT46ndTNTiYN2ALf5-18">
          <mxGeometry x="-0.1643" y="-1" relative="1" as="geometry">
            <mxPoint as="offset" />
          </mxGeometry>
        </mxCell>
        <mxCell id="6iqwT46ndTNTiYN2ALf5-25" style="edgeStyle=orthogonalEdgeStyle;rounded=0;orthogonalLoop=1;jettySize=auto;html=1;entryX=0;entryY=0.5;entryDx=0;entryDy=0;fontStyle=1" edge="1" parent="1" target="6iqwT46ndTNTiYN2ALf5-14">
          <mxGeometry relative="1" as="geometry">
            <mxPoint x="430" y="95" as="sourcePoint" />
            <mxPoint x="290" y="480" as="targetPoint" />
            <Array as="points">
              <mxPoint x="200" y="95" />
              <mxPoint x="200" y="445" />
            </Array>
          </mxGeometry>
        </mxCell>
        <mxCell id="6iqwT46ndTNTiYN2ALf5-10" value="IS&lt;br style=&quot;font-size: 13px;&quot;&gt;Registered" style="rhombus;whiteSpace=wrap;html=1;fontSize=13;fontStyle=1" vertex="1" parent="1">
          <mxGeometry x="370" y="295" width="120" height="80" as="geometry" />
        </mxCell>
        <mxCell id="6iqwT46ndTNTiYN2ALf5-22" value="" style="edgeStyle=orthogonalEdgeStyle;rounded=0;orthogonalLoop=1;jettySize=auto;html=1;fontStyle=1" edge="1" parent="1" source="6iqwT46ndTNTiYN2ALf5-14" target="6iqwT46ndTNTiYN2ALf5-21">
          <mxGeometry relative="1" as="geometry" />
        </mxCell>
        <mxCell id="6iqwT46ndTNTiYN2ALf5-14" value="Login" style="whiteSpace=wrap;html=1;fontSize=14;fontStyle=5" vertex="1" parent="1">
          <mxGeometry x="370" y="415" width="120" height="60" as="geometry" />
        </mxCell>
        <mxCell id="6iqwT46ndTNTiYN2ALf5-26" style="edgeStyle=orthogonalEdgeStyle;rounded=0;orthogonalLoop=1;jettySize=auto;html=1;exitX=1;exitY=0.5;exitDx=0;exitDy=0;fontStyle=1" edge="1" parent="1" source="6iqwT46ndTNTiYN2ALf5-17">
          <mxGeometry relative="1" as="geometry">
            <mxPoint x="430" y="495" as="targetPoint" />
            <Array as="points">
              <mxPoint x="710" y="335" />
              <mxPoint x="710" y="495" />
            </Array>
          </mxGeometry>
        </mxCell>
        <mxCell id="6iqwT46ndTNTiYN2ALf5-17" value="Registration" style="whiteSpace=wrap;html=1;fontSize=14;fontStyle=5" vertex="1" parent="1">
          <mxGeometry x="570" y="305" width="120" height="60" as="geometry" />
        </mxCell>
        <mxCell id="6iqwT46ndTNTiYN2ALf5-46" style="edgeStyle=orthogonalEdgeStyle;rounded=0;orthogonalLoop=1;jettySize=auto;html=1;exitX=1;exitY=0.5;exitDx=0;exitDy=0;entryX=0.5;entryY=0;entryDx=0;entryDy=0;fontStyle=1" edge="1" parent="1" source="6iqwT46ndTNTiYN2ALf5-21" target="6iqwT46ndTNTiYN2ALf5-36">
          <mxGeometry relative="1" as="geometry" />
        </mxCell>
        <mxCell id="6iqwT46ndTNTiYN2ALf5-65" style="edgeStyle=orthogonalEdgeStyle;rounded=0;orthogonalLoop=1;jettySize=auto;html=1;exitX=1;exitY=0.5;exitDx=0;exitDy=0;fontStyle=1" edge="1" parent="1" source="6iqwT46ndTNTiYN2ALf5-21" target="6iqwT46ndTNTiYN2ALf5-40">
          <mxGeometry relative="1" as="geometry" />
        </mxCell>
        <mxCell id="6iqwT46ndTNTiYN2ALf5-102" style="edgeStyle=orthogonalEdgeStyle;rounded=0;orthogonalLoop=1;jettySize=auto;html=1;exitX=0;exitY=0.5;exitDx=0;exitDy=0;entryX=0.5;entryY=0;entryDx=0;entryDy=0;fontStyle=1" edge="1" parent="1" source="6iqwT46ndTNTiYN2ALf5-21" target="6iqwT46ndTNTiYN2ALf5-80">
          <mxGeometry relative="1" as="geometry" />
        </mxCell>
        <mxCell id="6iqwT46ndTNTiYN2ALf5-103" style="edgeStyle=orthogonalEdgeStyle;rounded=0;orthogonalLoop=1;jettySize=auto;html=1;exitX=0;exitY=0.5;exitDx=0;exitDy=0;entryX=0.5;entryY=0;entryDx=0;entryDy=0;fontStyle=1" edge="1" parent="1" source="6iqwT46ndTNTiYN2ALf5-21" target="6iqwT46ndTNTiYN2ALf5-93">
          <mxGeometry relative="1" as="geometry" />
        </mxCell>
        <mxCell id="6iqwT46ndTNTiYN2ALf5-21" value="IS&lt;br style=&quot;font-size: 13px;&quot;&gt;Admin" style="rhombus;whiteSpace=wrap;html=1;fontSize=13;fontStyle=1" vertex="1" parent="1">
          <mxGeometry x="390" y="515" width="80" height="80" as="geometry" />
        </mxCell>
        <mxCell id="6iqwT46ndTNTiYN2ALf5-23" value="Passenger" style="text;html=1;align=center;verticalAlign=middle;resizable=0;points=[];autosize=1;strokeColor=none;fillColor=none;fontStyle=1;fontSize=15;" vertex="1" parent="1">
          <mxGeometry x="480" y="60" width="100" height="30" as="geometry" />
        </mxCell>
        <mxCell id="6iqwT46ndTNTiYN2ALf5-24" value="Admin" style="text;html=1;align=center;verticalAlign=middle;resizable=0;points=[];autosize=1;strokeColor=none;fillColor=none;fontStyle=1;fontSize=15;" vertex="1" parent="1">
          <mxGeometry x="300" y="60" width="70" height="30" as="geometry" />
        </mxCell>
        <mxCell id="6iqwT46ndTNTiYN2ALf5-59" style="edgeStyle=orthogonalEdgeStyle;rounded=0;orthogonalLoop=1;jettySize=auto;html=1;exitX=0.5;exitY=1;exitDx=0;exitDy=0;entryX=0.5;entryY=0;entryDx=0;entryDy=0;fontStyle=1" edge="1" parent="1" source="6iqwT46ndTNTiYN2ALf5-35" target="6iqwT46ndTNTiYN2ALf5-54">
          <mxGeometry relative="1" as="geometry" />
        </mxCell>
        <mxCell id="6iqwT46ndTNTiYN2ALf5-35" value="Search Trip" style="shape=parallelogram;perimeter=parallelogramPerimeter;whiteSpace=wrap;html=1;fixedSize=1;fontStyle=1" vertex="1" parent="1">
          <mxGeometry x="380" y="115" width="100" height="40" as="geometry" />
        </mxCell>
        <mxCell id="6iqwT46ndTNTiYN2ALf5-66" style="edgeStyle=orthogonalEdgeStyle;rounded=0;orthogonalLoop=1;jettySize=auto;html=1;exitX=0.5;exitY=1;exitDx=0;exitDy=0;entryX=0.5;entryY=0;entryDx=0;entryDy=0;fontStyle=1" edge="1" parent="1" source="6iqwT46ndTNTiYN2ALf5-36" target="6iqwT46ndTNTiYN2ALf5-37">
          <mxGeometry relative="1" as="geometry" />
        </mxCell>
        <mxCell id="6iqwT46ndTNTiYN2ALf5-67" style="edgeStyle=orthogonalEdgeStyle;rounded=0;orthogonalLoop=1;jettySize=auto;html=1;exitX=0.75;exitY=1;exitDx=0;exitDy=0;entryX=0.5;entryY=0;entryDx=0;entryDy=0;fontStyle=1" edge="1" parent="1" source="6iqwT46ndTNTiYN2ALf5-36" target="6iqwT46ndTNTiYN2ALf5-39">
          <mxGeometry relative="1" as="geometry">
            <Array as="points">
              <mxPoint x="735" y="655" />
              <mxPoint x="770" y="655" />
            </Array>
          </mxGeometry>
        </mxCell>
        <mxCell id="6iqwT46ndTNTiYN2ALf5-68" style="edgeStyle=orthogonalEdgeStyle;rounded=0;orthogonalLoop=1;jettySize=auto;html=1;exitX=0.25;exitY=1;exitDx=0;exitDy=0;entryX=0.5;entryY=0;entryDx=0;entryDy=0;fontStyle=1" edge="1" parent="1" source="6iqwT46ndTNTiYN2ALf5-36" target="6iqwT46ndTNTiYN2ALf5-38">
          <mxGeometry relative="1" as="geometry">
            <Array as="points">
              <mxPoint x="685" y="655" />
              <mxPoint x="650" y="655" />
            </Array>
          </mxGeometry>
        </mxCell>
        <mxCell id="6iqwT46ndTNTiYN2ALf5-36" value="DashBoard" style="rounded=0;whiteSpace=wrap;html=1;fontStyle=1" vertex="1" parent="1">
          <mxGeometry x="660" y="605" width="100" height="40" as="geometry" />
        </mxCell>
        <mxCell id="6iqwT46ndTNTiYN2ALf5-86" style="edgeStyle=orthogonalEdgeStyle;rounded=0;orthogonalLoop=1;jettySize=auto;html=1;exitX=0.5;exitY=1;exitDx=0;exitDy=0;entryX=0.5;entryY=0;entryDx=0;entryDy=0;fontStyle=1" edge="1" parent="1" source="6iqwT46ndTNTiYN2ALf5-37" target="6iqwT46ndTNTiYN2ALf5-50">
          <mxGeometry relative="1" as="geometry">
            <Array as="points">
              <mxPoint x="710" y="900" />
              <mxPoint x="430" y="900" />
            </Array>
          </mxGeometry>
        </mxCell>
        <mxCell id="6iqwT46ndTNTiYN2ALf5-37" value="View Booked Tickets" style="rounded=1;whiteSpace=wrap;html=1;fontStyle=1" vertex="1" parent="1">
          <mxGeometry x="660" y="725" width="100" height="40" as="geometry" />
        </mxCell>
        <mxCell id="6iqwT46ndTNTiYN2ALf5-38" value="View Profile" style="rounded=1;whiteSpace=wrap;html=1;fontStyle=1" vertex="1" parent="1">
          <mxGeometry x="600" y="665" width="100" height="40" as="geometry" />
        </mxCell>
        <mxCell id="6iqwT46ndTNTiYN2ALf5-39" value="Change &lt;br&gt;Password" style="rounded=1;whiteSpace=wrap;html=1;fontStyle=1" vertex="1" parent="1">
          <mxGeometry x="720" y="665" width="100" height="40" as="geometry" />
        </mxCell>
        <mxCell id="6iqwT46ndTNTiYN2ALf5-69" style="edgeStyle=orthogonalEdgeStyle;rounded=0;orthogonalLoop=1;jettySize=auto;html=1;exitX=0.5;exitY=1;exitDx=0;exitDy=0;entryX=0.5;entryY=0;entryDx=0;entryDy=0;fontStyle=1" edge="1" parent="1" source="6iqwT46ndTNTiYN2ALf5-40" target="6iqwT46ndTNTiYN2ALf5-41">
          <mxGeometry relative="1" as="geometry" />
        </mxCell>
        <mxCell id="6iqwT46ndTNTiYN2ALf5-40" value="Home" style="rounded=0;whiteSpace=wrap;html=1;fontStyle=1" vertex="1" parent="1">
          <mxGeometry x="487.5" y="605" width="105" height="40" as="geometry" />
        </mxCell>
        <mxCell id="6iqwT46ndTNTiYN2ALf5-72" style="edgeStyle=orthogonalEdgeStyle;rounded=0;orthogonalLoop=1;jettySize=auto;html=1;exitX=0.75;exitY=1;exitDx=0;exitDy=0;entryX=0.75;entryY=0;entryDx=0;entryDy=0;fontStyle=1" edge="1" parent="1" source="6iqwT46ndTNTiYN2ALf5-41" target="6iqwT46ndTNTiYN2ALf5-43">
          <mxGeometry relative="1" as="geometry">
            <Array as="points">
              <mxPoint x="566" y="715" />
              <mxPoint x="615" y="715" />
            </Array>
          </mxGeometry>
        </mxCell>
        <mxCell id="6iqwT46ndTNTiYN2ALf5-41" value="Book Ticekt" style="rounded=1;whiteSpace=wrap;html=1;fontStyle=1" vertex="1" parent="1">
          <mxGeometry x="487.5" y="665" width="105" height="40" as="geometry" />
        </mxCell>
        <mxCell id="6iqwT46ndTNTiYN2ALf5-74" style="edgeStyle=orthogonalEdgeStyle;rounded=0;orthogonalLoop=1;jettySize=auto;html=1;exitX=0.5;exitY=1;exitDx=0;exitDy=0;entryX=0.5;entryY=0;entryDx=0;entryDy=0;fontStyle=1" edge="1" parent="1" source="6iqwT46ndTNTiYN2ALf5-42" target="6iqwT46ndTNTiYN2ALf5-45">
          <mxGeometry relative="1" as="geometry">
            <Array as="points">
              <mxPoint x="490" y="775" />
              <mxPoint x="533" y="775" />
            </Array>
          </mxGeometry>
        </mxCell>
        <mxCell id="6iqwT46ndTNTiYN2ALf5-42" value="Send Mail" style="shape=parallelogram;perimeter=parallelogramPerimeter;whiteSpace=wrap;html=1;fixedSize=1;fontStyle=1" vertex="1" parent="1">
          <mxGeometry x="440" y="725" width="100" height="40" as="geometry" />
        </mxCell>
        <mxCell id="6iqwT46ndTNTiYN2ALf5-76" style="edgeStyle=orthogonalEdgeStyle;rounded=0;orthogonalLoop=1;jettySize=auto;html=1;exitX=0.25;exitY=1;exitDx=0;exitDy=0;entryX=0.5;entryY=0;entryDx=0;entryDy=0;fontStyle=1" edge="1" parent="1" source="6iqwT46ndTNTiYN2ALf5-43" target="6iqwT46ndTNTiYN2ALf5-45">
          <mxGeometry relative="1" as="geometry">
            <Array as="points">
              <mxPoint x="565" y="775" />
              <mxPoint x="533" y="775" />
            </Array>
          </mxGeometry>
        </mxCell>
        <mxCell id="6iqwT46ndTNTiYN2ALf5-43" value="Trace Ticket" style="shape=parallelogram;perimeter=parallelogramPerimeter;whiteSpace=wrap;html=1;fixedSize=1;fontStyle=1" vertex="1" parent="1">
          <mxGeometry x="540" y="725" width="100" height="40" as="geometry" />
        </mxCell>
        <mxCell id="6iqwT46ndTNTiYN2ALf5-78" style="edgeStyle=orthogonalEdgeStyle;rounded=0;orthogonalLoop=1;jettySize=auto;html=1;exitX=0.5;exitY=1;exitDx=0;exitDy=0;entryX=0.5;entryY=0;entryDx=0;entryDy=0;fontStyle=1" edge="1" parent="1" source="6iqwT46ndTNTiYN2ALf5-44" target="6iqwT46ndTNTiYN2ALf5-50">
          <mxGeometry relative="1" as="geometry">
            <Array as="points">
              <mxPoint x="533" y="900" />
              <mxPoint x="430" y="900" />
            </Array>
          </mxGeometry>
        </mxCell>
        <mxCell id="6iqwT46ndTNTiYN2ALf5-44" value="Print Ticekt" style="rounded=1;whiteSpace=wrap;html=1;fontStyle=1" vertex="1" parent="1">
          <mxGeometry x="480" y="845" width="105" height="40" as="geometry" />
        </mxCell>
        <mxCell id="6iqwT46ndTNTiYN2ALf5-77" style="edgeStyle=orthogonalEdgeStyle;rounded=0;orthogonalLoop=1;jettySize=auto;html=1;exitX=0.5;exitY=1;exitDx=0;exitDy=0;entryX=0.5;entryY=0;entryDx=0;entryDy=0;fontStyle=1" edge="1" parent="1" source="6iqwT46ndTNTiYN2ALf5-45" target="6iqwT46ndTNTiYN2ALf5-44">
          <mxGeometry relative="1" as="geometry" />
        </mxCell>
        <mxCell id="6iqwT46ndTNTiYN2ALf5-45" value="Show Ticekt" style="rounded=1;whiteSpace=wrap;html=1;fontStyle=1" vertex="1" parent="1">
          <mxGeometry x="480" y="785" width="105" height="40" as="geometry" />
        </mxCell>
        <mxCell id="6iqwT46ndTNTiYN2ALf5-48" value="False" style="text;html=1;align=center;verticalAlign=middle;resizable=0;points=[];autosize=1;strokeColor=none;fillColor=none;fontStyle=3;fontSize=13;" vertex="1" parent="1">
          <mxGeometry x="465" y="523" width="60" height="30" as="geometry" />
        </mxCell>
        <mxCell id="6iqwT46ndTNTiYN2ALf5-49" value="True" style="text;html=1;align=center;verticalAlign=middle;resizable=0;points=[];autosize=1;strokeColor=none;fillColor=none;fontStyle=3;fontSize=13;" vertex="1" parent="1">
          <mxGeometry x="340" y="523" width="50" height="30" as="geometry" />
        </mxCell>
        <mxCell id="6iqwT46ndTNTiYN2ALf5-64" style="edgeStyle=orthogonalEdgeStyle;rounded=0;orthogonalLoop=1;jettySize=auto;html=1;exitX=0.5;exitY=1;exitDx=0;exitDy=0;entryX=0.5;entryY=0.5;entryDx=0;entryDy=-20;entryPerimeter=0;fontStyle=1" edge="1" parent="1" source="6iqwT46ndTNTiYN2ALf5-50" target="6iqwT46ndTNTiYN2ALf5-110">
          <mxGeometry relative="1" as="geometry">
            <mxPoint x="427.5" y="1025" as="targetPoint" />
            <Array as="points">
              <mxPoint x="427" y="985" />
            </Array>
          </mxGeometry>
        </mxCell>
        <mxCell id="6iqwT46ndTNTiYN2ALf5-50" value="Logout" style="rounded=0;whiteSpace=wrap;html=1;fontStyle=5" vertex="1" parent="1">
          <mxGeometry x="370" y="925" width="120" height="60" as="geometry" />
        </mxCell>
        <mxCell id="6iqwT46ndTNTiYN2ALf5-60" style="edgeStyle=orthogonalEdgeStyle;rounded=0;orthogonalLoop=1;jettySize=auto;html=1;exitX=0.5;exitY=1;exitDx=0;exitDy=0;entryX=0.5;entryY=0;entryDx=0;entryDy=0;fontStyle=1" edge="1" parent="1" source="6iqwT46ndTNTiYN2ALf5-54" target="6iqwT46ndTNTiYN2ALf5-10">
          <mxGeometry relative="1" as="geometry" />
        </mxCell>
        <mxCell id="6iqwT46ndTNTiYN2ALf5-61" value="&lt;font style=&quot;font-size: 13px;&quot;&gt;True&lt;/font&gt;" style="edgeLabel;html=1;align=center;verticalAlign=middle;resizable=0;points=[];fontStyle=3;fontSize=13;" vertex="1" connectable="0" parent="6iqwT46ndTNTiYN2ALf5-60">
          <mxGeometry x="-0.2491" y="-1" relative="1" as="geometry">
            <mxPoint as="offset" />
          </mxGeometry>
        </mxCell>
        <mxCell id="6iqwT46ndTNTiYN2ALf5-62" style="edgeStyle=orthogonalEdgeStyle;rounded=0;orthogonalLoop=1;jettySize=auto;html=1;entryX=0.5;entryY=0.5;entryDx=0;entryDy=-20;entryPerimeter=0;fontStyle=1" edge="1" parent="1" source="6iqwT46ndTNTiYN2ALf5-54" target="6iqwT46ndTNTiYN2ALf5-110">
          <mxGeometry relative="1" as="geometry">
            <mxPoint x="427.5" y="1025" as="targetPoint" />
            <Array as="points">
              <mxPoint x="830" y="215" />
              <mxPoint x="830" y="1005" />
              <mxPoint x="427" y="1005" />
            </Array>
          </mxGeometry>
        </mxCell>
        <mxCell id="6iqwT46ndTNTiYN2ALf5-63" value="&lt;font style=&quot;font-size: 13px;&quot;&gt;False&lt;/font&gt;" style="edgeLabel;html=1;align=center;verticalAlign=middle;resizable=0;points=[];fontStyle=3;fontSize=13;" vertex="1" connectable="0" parent="6iqwT46ndTNTiYN2ALf5-62">
          <mxGeometry x="-0.9608" relative="1" as="geometry">
            <mxPoint x="-7" as="offset" />
          </mxGeometry>
        </mxCell>
        <mxCell id="6iqwT46ndTNTiYN2ALf5-54" value="Book&lt;br style=&quot;font-size: 13px;&quot;&gt;Ticket" style="rhombus;whiteSpace=wrap;html=1;fontStyle=1;fontSize=13;" vertex="1" parent="1">
          <mxGeometry x="390" y="175" width="80" height="80" as="geometry" />
        </mxCell>
        <mxCell id="6iqwT46ndTNTiYN2ALf5-58" style="edgeStyle=orthogonalEdgeStyle;rounded=0;orthogonalLoop=1;jettySize=auto;html=1;exitX=0.517;exitY=1;exitDx=0;exitDy=0;entryX=0.472;entryY=0.001;entryDx=0;entryDy=0;entryPerimeter=0;exitPerimeter=0;fontStyle=1" edge="1" parent="1" source="6iqwT46ndTNTiYN2ALf5-111">
          <mxGeometry relative="1" as="geometry">
            <mxPoint x="429.5" y="75" as="sourcePoint" />
            <mxPoint x="429.19999999999993" y="115.04000000000002" as="targetPoint" />
          </mxGeometry>
        </mxCell>
        <mxCell id="6iqwT46ndTNTiYN2ALf5-73" style="edgeStyle=orthogonalEdgeStyle;rounded=0;orthogonalLoop=1;jettySize=auto;html=1;exitX=0.25;exitY=1;exitDx=0;exitDy=0;entryX=0.375;entryY=0.009;entryDx=0;entryDy=0;entryPerimeter=0;fontStyle=1" edge="1" parent="1" source="6iqwT46ndTNTiYN2ALf5-41" target="6iqwT46ndTNTiYN2ALf5-42">
          <mxGeometry relative="1" as="geometry">
            <Array as="points">
              <mxPoint x="514" y="715" />
              <mxPoint x="478" y="715" />
            </Array>
          </mxGeometry>
        </mxCell>
        <mxCell id="6iqwT46ndTNTiYN2ALf5-95" style="edgeStyle=orthogonalEdgeStyle;rounded=0;orthogonalLoop=1;jettySize=auto;html=1;exitX=0.5;exitY=1;exitDx=0;exitDy=0;entryX=0;entryY=0;entryDx=0;entryDy=0;fontStyle=1" edge="1" parent="1" source="6iqwT46ndTNTiYN2ALf5-80" target="6iqwT46ndTNTiYN2ALf5-85">
          <mxGeometry relative="1" as="geometry">
            <Array as="points">
              <mxPoint x="110" y="830" />
              <mxPoint x="30" y="830" />
            </Array>
          </mxGeometry>
        </mxCell>
        <mxCell id="6iqwT46ndTNTiYN2ALf5-96" style="edgeStyle=orthogonalEdgeStyle;rounded=0;orthogonalLoop=1;jettySize=auto;html=1;exitX=0.5;exitY=1;exitDx=0;exitDy=0;entryX=0.25;entryY=0;entryDx=0;entryDy=0;fontStyle=1" edge="1" parent="1" source="6iqwT46ndTNTiYN2ALf5-80" target="6iqwT46ndTNTiYN2ALf5-84">
          <mxGeometry relative="1" as="geometry">
            <Array as="points">
              <mxPoint x="110" y="830" />
              <mxPoint x="115" y="830" />
            </Array>
          </mxGeometry>
        </mxCell>
        <mxCell id="6iqwT46ndTNTiYN2ALf5-97" style="edgeStyle=orthogonalEdgeStyle;rounded=0;orthogonalLoop=1;jettySize=auto;html=1;exitX=0.5;exitY=1;exitDx=0;exitDy=0;fontStyle=1" edge="1" parent="1" source="6iqwT46ndTNTiYN2ALf5-80" target="6iqwT46ndTNTiYN2ALf5-91">
          <mxGeometry relative="1" as="geometry">
            <Array as="points">
              <mxPoint x="110" y="830" />
              <mxPoint x="200" y="830" />
            </Array>
          </mxGeometry>
        </mxCell>
        <mxCell id="6iqwT46ndTNTiYN2ALf5-98" style="edgeStyle=orthogonalEdgeStyle;rounded=0;orthogonalLoop=1;jettySize=auto;html=1;exitX=0.5;exitY=1;exitDx=0;exitDy=0;entryX=0.75;entryY=0;entryDx=0;entryDy=0;fontStyle=1" edge="1" parent="1" source="6iqwT46ndTNTiYN2ALf5-80" target="6iqwT46ndTNTiYN2ALf5-83">
          <mxGeometry relative="1" as="geometry">
            <Array as="points">
              <mxPoint x="110" y="830" />
              <mxPoint x="285" y="830" />
            </Array>
          </mxGeometry>
        </mxCell>
        <mxCell id="6iqwT46ndTNTiYN2ALf5-80" value="Country&lt;br&gt;Employee&lt;br&gt;Employee Type&lt;br&gt;Facility&lt;br&gt;Fleet&lt;br&gt;Inquiry&lt;br&gt;Location&lt;br&gt;Passenger&lt;br&gt;Schedule&lt;br&gt;Stand&lt;br&gt;Tax&lt;br&gt;Trip&lt;br&gt;Vehical" style="rounded=0;whiteSpace=wrap;html=1;fontStyle=1" vertex="1" parent="1">
          <mxGeometry x="30" y="605" width="160" height="210" as="geometry" />
        </mxCell>
        <mxCell id="6iqwT46ndTNTiYN2ALf5-105" style="edgeStyle=orthogonalEdgeStyle;rounded=0;orthogonalLoop=1;jettySize=auto;html=1;exitX=0.5;exitY=1;exitDx=0;exitDy=0;entryX=0.5;entryY=0;entryDx=0;entryDy=0;fontStyle=1" edge="1" parent="1" source="6iqwT46ndTNTiYN2ALf5-83" target="6iqwT46ndTNTiYN2ALf5-50">
          <mxGeometry relative="1" as="geometry">
            <Array as="points">
              <mxPoint x="270" y="900" />
              <mxPoint x="430" y="900" />
            </Array>
          </mxGeometry>
        </mxCell>
        <mxCell id="6iqwT46ndTNTiYN2ALf5-83" value="Add" style="rounded=1;whiteSpace=wrap;html=1;fontStyle=1" vertex="1" parent="1">
          <mxGeometry x="240" y="845" width="60" height="40" as="geometry" />
        </mxCell>
        <mxCell id="6iqwT46ndTNTiYN2ALf5-107" style="edgeStyle=orthogonalEdgeStyle;rounded=0;orthogonalLoop=1;jettySize=auto;html=1;exitX=0.5;exitY=1;exitDx=0;exitDy=0;entryX=0.5;entryY=0;entryDx=0;entryDy=0;fontStyle=1" edge="1" parent="1" source="6iqwT46ndTNTiYN2ALf5-84" target="6iqwT46ndTNTiYN2ALf5-50">
          <mxGeometry relative="1" as="geometry">
            <Array as="points">
              <mxPoint x="130" y="900" />
              <mxPoint x="430" y="900" />
            </Array>
          </mxGeometry>
        </mxCell>
        <mxCell id="6iqwT46ndTNTiYN2ALf5-84" value="Edit" style="rounded=1;whiteSpace=wrap;html=1;fontStyle=1" vertex="1" parent="1">
          <mxGeometry x="100" y="845" width="60" height="40" as="geometry" />
        </mxCell>
        <mxCell id="6iqwT46ndTNTiYN2ALf5-109" style="edgeStyle=orthogonalEdgeStyle;rounded=0;orthogonalLoop=1;jettySize=auto;html=1;exitX=0.5;exitY=1;exitDx=0;exitDy=0;entryX=0.5;entryY=0;entryDx=0;entryDy=0;fontStyle=1" edge="1" parent="1" source="6iqwT46ndTNTiYN2ALf5-85" target="6iqwT46ndTNTiYN2ALf5-50">
          <mxGeometry relative="1" as="geometry">
            <Array as="points">
              <mxPoint x="60" y="900" />
              <mxPoint x="430" y="900" />
            </Array>
          </mxGeometry>
        </mxCell>
        <mxCell id="6iqwT46ndTNTiYN2ALf5-85" value="Remove" style="rounded=1;whiteSpace=wrap;html=1;fontStyle=1" vertex="1" parent="1">
          <mxGeometry x="30" y="845" width="60" height="40" as="geometry" />
        </mxCell>
        <mxCell id="6iqwT46ndTNTiYN2ALf5-89" value="" style="endArrow=none;html=1;rounded=0;entryX=0.5;entryY=1;entryDx=0;entryDy=0;fontStyle=1" edge="1" parent="1" target="6iqwT46ndTNTiYN2ALf5-38">
          <mxGeometry width="50" height="50" relative="1" as="geometry">
            <mxPoint x="710" y="900" as="sourcePoint" />
            <mxPoint x="660" y="810" as="targetPoint" />
            <Array as="points">
              <mxPoint x="650" y="860" />
            </Array>
          </mxGeometry>
        </mxCell>
        <mxCell id="6iqwT46ndTNTiYN2ALf5-90" value="" style="endArrow=none;html=1;rounded=0;entryX=0.5;entryY=1;entryDx=0;entryDy=0;fontStyle=1" edge="1" parent="1" target="6iqwT46ndTNTiYN2ALf5-39">
          <mxGeometry width="50" height="50" relative="1" as="geometry">
            <mxPoint x="710" y="900" as="sourcePoint" />
            <mxPoint x="660" y="715" as="targetPoint" />
            <Array as="points">
              <mxPoint x="770" y="860" />
            </Array>
          </mxGeometry>
        </mxCell>
        <mxCell id="6iqwT46ndTNTiYN2ALf5-106" style="edgeStyle=orthogonalEdgeStyle;rounded=0;orthogonalLoop=1;jettySize=auto;html=1;exitX=0.5;exitY=1;exitDx=0;exitDy=0;entryX=0.5;entryY=0;entryDx=0;entryDy=0;fontStyle=1" edge="1" parent="1" source="6iqwT46ndTNTiYN2ALf5-91" target="6iqwT46ndTNTiYN2ALf5-50">
          <mxGeometry relative="1" as="geometry">
            <Array as="points">
              <mxPoint x="200" y="900" />
              <mxPoint x="430" y="900" />
            </Array>
          </mxGeometry>
        </mxCell>
        <mxCell id="6iqwT46ndTNTiYN2ALf5-91" value="View" style="rounded=1;whiteSpace=wrap;html=1;fontStyle=1" vertex="1" parent="1">
          <mxGeometry x="170" y="845" width="60" height="40" as="geometry" />
        </mxCell>
        <mxCell id="6iqwT46ndTNTiYN2ALf5-99" style="edgeStyle=orthogonalEdgeStyle;rounded=0;orthogonalLoop=1;jettySize=auto;html=1;exitX=0.5;exitY=1;exitDx=0;exitDy=0;entryX=0.936;entryY=0.003;entryDx=0;entryDy=0;entryPerimeter=0;fontStyle=1" edge="1" parent="1" source="6iqwT46ndTNTiYN2ALf5-93" target="6iqwT46ndTNTiYN2ALf5-83">
          <mxGeometry relative="1" as="geometry">
            <Array as="points">
              <mxPoint x="280" y="645" />
              <mxPoint x="280" y="800" />
              <mxPoint x="296" y="800" />
            </Array>
          </mxGeometry>
        </mxCell>
        <mxCell id="6iqwT46ndTNTiYN2ALf5-101" style="edgeStyle=orthogonalEdgeStyle;rounded=0;orthogonalLoop=1;jettySize=auto;html=1;exitX=0.75;exitY=1;exitDx=0;exitDy=0;entryX=0.5;entryY=0;entryDx=0;entryDy=0;fontStyle=1" edge="1" parent="1" source="6iqwT46ndTNTiYN2ALf5-93" target="6iqwT46ndTNTiYN2ALf5-94">
          <mxGeometry relative="1" as="geometry">
            <Array as="points">
              <mxPoint x="309" y="800" />
              <mxPoint x="340" y="800" />
            </Array>
          </mxGeometry>
        </mxCell>
        <mxCell id="6iqwT46ndTNTiYN2ALf5-113" style="edgeStyle=orthogonalEdgeStyle;rounded=0;orthogonalLoop=1;jettySize=auto;html=1;exitX=0.25;exitY=1;exitDx=0;exitDy=0;entryX=0.75;entryY=0;entryDx=0;entryDy=0;" edge="1" parent="1" source="6iqwT46ndTNTiYN2ALf5-93" target="6iqwT46ndTNTiYN2ALf5-91">
          <mxGeometry relative="1" as="geometry">
            <mxPoint x="200" y="830" as="targetPoint" />
            <Array as="points">
              <mxPoint x="256" y="800" />
              <mxPoint x="215" y="800" />
            </Array>
          </mxGeometry>
        </mxCell>
        <mxCell id="6iqwT46ndTNTiYN2ALf5-93" value="Ticket" style="rounded=0;whiteSpace=wrap;html=1;fontStyle=1" vertex="1" parent="1">
          <mxGeometry x="230" y="605" width="105" height="40" as="geometry" />
        </mxCell>
        <mxCell id="6iqwT46ndTNTiYN2ALf5-104" style="edgeStyle=orthogonalEdgeStyle;rounded=0;orthogonalLoop=1;jettySize=auto;html=1;exitX=0.5;exitY=1;exitDx=0;exitDy=0;entryX=0.5;entryY=0;entryDx=0;entryDy=0;fontStyle=1" edge="1" parent="1" source="6iqwT46ndTNTiYN2ALf5-94" target="6iqwT46ndTNTiYN2ALf5-50">
          <mxGeometry relative="1" as="geometry">
            <Array as="points">
              <mxPoint x="340" y="900" />
              <mxPoint x="430" y="900" />
            </Array>
          </mxGeometry>
        </mxCell>
        <mxCell id="6iqwT46ndTNTiYN2ALf5-94" value="Cancel" style="rounded=1;whiteSpace=wrap;html=1;fontStyle=1" vertex="1" parent="1">
          <mxGeometry x="310" y="845" width="60" height="40" as="geometry" />
        </mxCell>
        <mxCell id="6iqwT46ndTNTiYN2ALf5-110" value="End" style="html=1;dashed=0;whiteSpace=wrap;shape=mxgraph.dfd.start;fontStyle=1;fontSize=15;" vertex="1" parent="1">
          <mxGeometry x="377.5" y="1030" width="100" height="40" as="geometry" />
        </mxCell>
        <mxCell id="6iqwT46ndTNTiYN2ALf5-111" value="Start" style="html=1;dashed=0;whiteSpace=wrap;shape=mxgraph.dfd.start;fontStyle=1;fontSize=15;" vertex="1" parent="1">
          <mxGeometry x="377.5" y="30" width="100" height="40" as="geometry" />
        </mxCell>
      </root>
    </mxGraphModel>
  </diagram>
</mxfile>
